Coordinates
version=1
nRows=29
nColumns=24
inDegrees=yes

Units are S.I. units (second, meters, Newtons, ...)
Angles are in degrees.

endheader
time	pelvis_tilt	pelvis_list	pelvis_rotation	pelvis_tx	pelvis_ty	pelvis_tz	hip_flexion_r	hip_adduction_r	hip_rotation_r	knee_angle_r	ankle_angle_r	subtalar_angle_r	mtp_angle_r	hip_flexion_l	hip_adduction_l	hip_rotation_l	knee_angle_l	ankle_angle_l	subtalar_angle_l	mtp_angle_l	lumbar_extension	lumbar_bending	lumbar_rotation
      5.67000000	     32.68252560	      2.55613495	      1.46372098	      0.58026223	      0.67355108	     -0.22087228	    -30.48724181	      3.75647089	     -6.91768245	    -14.57403233	     21.22271983	    -20.74662765	      0.00000000	    -14.02165498	     -3.19048510	     -9.67712797	    -65.88861939	      9.31293971	     -2.81469957	      0.00000000	    -59.90952101	     -1.55086648	     -0.80316320
      5.67500000	     32.49794756	      2.51257123	      1.14159726	      0.58645730	      0.67375688	     -0.22068663	    -31.22488740	      3.66395964	     -6.80941981	    -13.87149358	     21.28573688	    -20.47923662	      0.00000000	    -13.01621136	     -2.95229624	    -10.00622440	    -65.10820186	      9.95355014	     -1.89301922	      0.00000000	    -59.79601509	     -1.78666331	     -0.42892485
      5.68000000	     32.33261471	      2.40262523	      0.77898574	      0.59262087	      0.67386345	     -0.22052929	    -31.95600612	      3.60225420	     -6.66971408	    -13.20623937	     21.32589765	    -20.19516509	      0.00000000	    -12.07193669	     -2.78089767	    -10.39037275	    -64.23185187	     10.59249351	     -1.06171094	      0.00000000	    -59.71478276	     -1.98720498	      0.05520060
      5.68500000	     32.17909631	      2.29001511	      0.44277144	      0.59877251	      0.67386439	     -0.22037611	    -32.68711090	      3.55672081	     -6.59169911	    -12.56270838	     21.36589732	    -19.93711724	      0.00000000	    -11.15971096	     -2.63429646	    -10.74664049	    -63.27569366	     11.16304009	     -0.32661389	      0.00000000	    -59.64360696	     -2.19662613	      0.54009285
      5.69000000	     32.05144340	      2.14501416	      0.09313194	      0.60491467	      0.67377867	     -0.22027391	    -33.42905337	      3.52463772	     -6.49863817	    -11.95050534	     21.41622475	    -19.66713154	      0.00000000	    -10.31576123	     -2.52241670	    -11.11212009	    -62.21994727	     11.70697868	      0.33759817	      0.00000000	    -59.60534168	     -2.35974760	      1.04733535
      5.69500000	     31.89349003	      2.03270585	     -0.14793112	      0.61103358	      0.67355280	     -0.22033447	    -34.13513690	      3.51541250	     -6.57347142	    -11.33901555	     21.43466040	    -19.51116708	      0.00000000	     -9.42565516	     -2.37294793	    -11.31870012	    -61.10871746	     12.17403845	      0.76883329	      0.00000000	    -59.54900948	     -2.45139725	      1.48152076
      5.70000000	     31.89229238	      1.79230945	     -0.61567599	      0.61713916	      0.67337134	     -0.22015570	    -34.96985065	      3.49001282	     -6.39472314	    -10.81069610	     21.53453265	    -19.10974439	      0.00000000	     -8.83618979	     -2.38229762	    -11.83335527	    -59.82516163	     12.63067660	      1.40220215	      0.00000000	    -59.64037761	     -2.62793624	      2.09497318
      5.70500000	     31.72399358	      1.68358381	     -0.75865249	      0.62326621	      0.67291751	     -0.22022228	    -35.64823935	      3.54480870	     -6.54029344	    -10.23944147	     21.58447883	    -19.02023537	      0.00000000	     -7.96972874	     -2.28715520	    -11.93502940	    -58.57426675	     12.97311946	      1.76534282	      0.00000000	    -59.58542907	     -2.66919486	      2.45434197
      5.71000000	     31.64267943	      1.49446943	     -0.99422644	      0.62937894	      0.67244893	     -0.22012956	    -36.38063049	      3.61774281	     -6.62209615	     -9.75736035	     21.70467756	    -18.71936400	      0.00000000	     -7.28385987	     -2.32023697	    -12.18915307	    -57.19632725	     13.32416386	      2.39565395	      0.00000000	    -59.60615087	     -2.73065630	      2.85310605
      5.71500000	     31.57401991	      1.31532422	     -1.21403993	      0.63548837	      0.67190196	     -0.22012973	    -37.11862477	      3.68100012	     -6.72710983	     -9.29337637	     21.80019997	    -18.47365077	      0.00000000	     -6.64290551	     -2.32112275	    -12.39656204	    -55.72325567	     13.61913009	      2.79023926	      0.00000000	    -59.65692323	     -2.77759720	      3.27982150
      5.72000000	     31.43179440	      1.13418802	     -1.28596402	      0.64157994	      0.67116223	     -0.22024673	    -37.76406815	      3.84678031	     -6.84018667	     -8.85470090	     21.91030047	    -18.42404604	      0.00000000	     -5.89656288	     -2.34160554	    -12.44438813	    -54.23032366	     13.86141194	      2.92131634	      0.00000000	    -59.64239420	     -2.70895914	      3.56850506
      5.72500000	     31.36056012	      0.97294032	     -1.46626030	      0.64768718	      0.67046983	     -0.22027479	    -38.43897505	      3.91047592	     -7.04332530	     -8.52329586	     22.03108293	    -18.18462713	      0.00000000	     -5.33703185	     -2.34104756	    -12.58900664	    -52.55002905	     14.14077938	      3.41046729	      0.00000000	    -59.70627037	     -2.74777301	      3.97965058
      5.73000000	     31.38907369	      0.77642792	     -1.68553126	      0.65379895	      0.66976051	     -0.22021478	    -39.23686686	      3.98377008	     -7.12068847	     -8.17486917	     22.19947574	    -17.86895132	      0.00000000	     -4.94270014	     -2.39650444	    -12.82816189	    -50.77793516	     14.29782095	      3.75263923	      0.00000000	    -59.86176185	     -2.79459964	      4.32352411
      5.73500000	     31.34453707	      0.61520237	     -1.79943578	      0.65991293	      0.66891610	     -0.22026604	    -39.92474109	      4.09273958	     -7.25242732	     -7.88820889	     22.35874415	    -17.76169283	      0.00000000	     -4.47820356	     -2.41097165	    -12.93112467	    -48.93013416	     14.44025393	      3.98152718	      0.00000000	    -59.95542349	     -2.79271989	      4.61885442
      5.74000000	     31.19975148	      0.42395776	     -1.78411902	      0.66598973	      0.66789515	     -0.22045411	    -40.47042075	      4.31001275	     -7.38442045	     -7.66575400	     22.52446323	    -17.77638223	      0.00000000	     -3.88583470	     -2.46861901	    -12.89845348	    -47.06725420	     14.57396207	      4.09870425	      0.00000000	    -59.96708978	     -2.65877740	      4.85214795
      5.74500000	     31.19678714	      0.29272748	     -1.94482648	      0.67214460	      0.66701041	     -0.22043017	    -41.16228001	      4.34908542	     -7.50729142	     -7.48163288	     22.75763849	    -17.56340118	      0.00000000	     -3.60124502	     -2.46505860	    -13.08978527	    -44.97494128	     14.61938345	      4.51345456	      0.00000000	    -60.11337923	     -2.72221756	      5.07514312
      5.75000000	     31.21029290	      0.14703001	     -2.05413869	      0.67827890	      0.66606171	     -0.22054045	    -41.84722659	      4.42102626	     -7.56314141	     -7.35076279	     22.95958830	    -17.51151703	      0.00000000	     -3.36673935	     -2.44657286	    -13.20159215	    -42.79845873	     14.64926323	      4.70912636	      0.00000000	    -60.28142855	     -2.72612449	      5.32769300
      5.75500000	     31.03546484	     -0.02587195	     -1.96539373	      0.68438633	      0.66489508	     -0.22079604	    -42.29136533	      4.65367766	     -7.71455325	     -7.28521608	     23.14704535	    -17.58096751	      0.00000000	     -2.87825954	     -2.48801749	    -13.10897292	    -40.65648091	     14.59614354	      4.92835391	      0.00000000	    -60.27669693	     -2.56174555	      5.54870316
      5.76000000	     30.95954553	     -0.13373772	     -2.04936484	      0.69063603	      0.66382495	     -0.22086512	    -42.84637213	      4.70398591	     -7.78531148	     -7.24155655	     23.44258153	    -17.53152464	      0.00000000	     -2.65940949	     -2.45917032	    -13.28162273	    -38.29650106	     14.49320185	      5.36036923	      0.00000000	    -60.34747252	     -2.58019758	      5.63436857
      5.76500000	     30.81170269	     -0.29388196	     -1.94296477	      0.69677620	      0.66262723	     -0.22120642	    -43.27274597	      4.91090136	     -7.87900238	     -7.28981521	     23.63379074	    -17.60464721	      0.00000000	     -2.31234803	     -2.45910163	    -13.14025860	    -35.97084155	     14.26496544	      5.66937946	      0.00000000	    -60.37304287	     -2.42052473	      5.88655368
      5.77000000	     30.85439344	     -0.39137555	     -2.13155201	      0.70312119	      0.66160912	     -0.22131006	    -43.92206378	      4.83995820	     -7.77877247	     -7.34808395	     23.96174226	    -17.56070323	      0.00000000	     -2.39711259	     -2.36825461	    -13.40368792	    -33.37915588	     14.05256051	      6.20618087	      0.00000000	    -60.55305584	     -2.50929964	      6.00665660
      5.77500000	     30.67221068	     -0.57800586	     -1.95843418	      0.70932301	      0.66032715	     -0.22176367	    -44.27858025	      5.09069249	     -7.86700911	     -7.47986030	     24.15529993	    -17.65324838	      0.00000000	     -2.09431679	     -2.39393775	    -13.22151226	    -30.96650117	     13.61545880	      6.60111677	      0.00000000	    -60.54503940	     -2.26674086	      6.22330977
      5.78000000	     30.60067062	     -0.65932559	     -2.05846118	      0.71590011	      0.65917464	     -0.22195900	    -44.79285293	      5.04813904	     -7.80529778	     -7.60833631	     24.44309868	    -17.62451490	      0.00000000	     -2.14275500	     -2.29040588	    -13.42337109	    -28.31520053	     13.25591255	      7.32899032	      0.00000000	    -60.56457705	     -2.31124480	      6.34506414
      5.78500000	     30.57903945	     -0.83203608	     -2.13079938	      0.72236584	      0.65803503	     -0.22231773	    -45.32062732	      5.06705292	     -7.70746258	     -7.80311189	     24.67818140	    -17.62042546	      0.00000000	     -2.24589313	     -2.25204111	    -13.46621589	    -25.70991203	     12.68465443	      7.99225388	      0.00000000	    -60.66417774	     -2.25148419	      6.60007673
      5.79000000	     30.39915556	     -1.04487441	     -1.91266689	      0.72878426	      0.65665714	     -0.22294822	    -45.63195717	      5.32077854	     -7.70900399	     -8.08985949	     24.91132720	    -17.69090721	      0.00000000	     -2.06557606	     -2.27620056	    -13.12923607	    -23.30313919	     12.00781539	      8.49356469	      0.00000000	    -60.61785417	     -1.93593409	      6.79937183
      5.79500000	     30.31104584	     -1.18122579	     -2.01895150	      0.73564395	      0.65546044	     -0.22328318	    -46.09641745	      5.25791589	     -7.62495107	     -8.34815560	     25.13037310	    -17.55147746	      0.00000000	     -2.21815485	     -2.21137672	    -13.22552330	    -20.72764426	     11.34786771	      9.44263796	      0.00000000	    -60.57067304	     -1.93010130	      7.00148385
      5.80000000	     30.25011081	     -1.38823450	     -2.02448783	      0.74240605	      0.65423011	     -0.22380678	    -46.53864455	      5.29871953	     -7.53791609	     -8.70178685	     25.28297566	    -17.47136723	      0.00000000	     -2.35276887	     -2.20934138	    -13.08454972	    -18.31714332	     10.53492461	     10.14935681	      0.00000000	    -60.57462297	     -1.78968226	      7.29546595
      5.80500000	     30.14779033	     -1.60285886	     -1.97373822	      0.74927223	      0.65293097	     -0.22439018	    -46.92124323	      5.37438714	     -7.47198398	     -9.10560334	     25.45138020	    -17.37996347	      0.00000000	     -2.42532479	     -2.23075041	    -12.79149341	    -16.08112710	      9.68545472	     10.83130702	      0.00000000	    -60.51490976	     -1.59725671	      7.55641467
      5.81000000	     30.00994729	     -1.81836449	     -1.80837393	      0.75619347	      0.65152884	     -0.22504686	    -47.24252532	      5.53584527	     -7.38667979	     -9.57015767	     25.64812646	    -17.38965648	      0.00000000	     -2.39335473	     -2.27667798	    -12.21053750	    -14.10781433	      8.82474142	     11.35252089	      0.00000000	    -60.40216167	     -1.32925674	      7.78823768
